<svg width="528" height="528" viewBox="0 0 528 528" fill="none" xmlns="http://www.w3.org/2000/svg">
<path d="M113.33 452.033C99.5932 450.592 89.6275 438.286 91.0746 424.55L133.081 25.8151C134.527 12.0887 146.823 2.13125 160.55 3.57069L427.655 31.5795C441.391 33.0199 451.357 45.3265 449.91 59.0624L407.904 457.797C406.458 471.523 394.162 481.481 380.434 480.041L113.33 452.033Z" fill="#006ACC"/>
<path d="M95.085 53.4829H382.74C388.69 53.1884 394.518 55.2445 398.96 59.2061C403.402 63.1677 406.1 68.7157 406.471 74.6483V505.131C406.472 511.063 404.135 516.758 399.964 520.986C395.793 525.215 390.123 527.637 384.178 527.731H96.5233C93.4465 527.93 90.3618 527.49 87.4641 526.439C84.5663 525.388 81.9187 523.749 79.6884 521.625C77.4581 519.501 75.6936 516.938 74.5066 514.099C73.3195 511.26 72.7356 508.207 72.7918 505.131V74.6483C73.0691 68.938 75.5397 63.5535 79.6908 59.6124C83.8419 55.6713 89.3547 53.4762 95.085 53.4829Z" fill="url(#paint0_linear_82_375)"/>
<path d="M373.356 465V495.885L351.648 480.531V485.649C351.648 485.649 370.944 501.003 373.356 501.003H373.865C375.396 500.413 376.833 499.723 378.18 498.954V467.226C376.688 466.373 375.072 465.631 373.356 465ZM346.315 465.177C344.784 465.766 343.347 466.457 342 467.226V498.954C343.492 499.806 345.108 500.549 346.824 501.18V470.295L368.532 485.649V480.531C368.532 480.531 349.236 465.177 346.824 465.177H346.315Z" fill="#D5D5D5"/>
<path d="M168.724 134.193C167.212 134.193 166.048 133.755 165.232 132.879C164.416 132.003 164.008 130.779 164.008 129.207V125.805H165.502V129.171C165.502 130.311 165.778 131.175 166.33 131.763C166.882 132.351 167.692 132.645 168.76 132.645H169.516C170.548 132.645 171.37 132.345 171.982 131.745C172.606 131.145 172.918 130.335 172.918 129.315V118.155H174.412V129.171C174.412 130.203 174.202 131.097 173.782 131.853C173.374 132.609 172.798 133.185 172.054 133.581C171.322 133.989 170.476 134.193 169.516 134.193H168.724ZM180.911 128.253C180.971 128.253 181.013 128.307 181.037 128.415C181.073 128.511 181.091 128.721 181.091 129.045C181.091 129.357 181.073 129.561 181.037 129.657C181.013 129.753 180.971 129.801 180.911 129.801H180.443C179.531 129.801 178.835 129.531 178.355 128.991C177.887 128.439 177.653 127.659 177.653 126.651V118.155H179.147V126.579C179.147 127.695 179.603 128.253 180.515 128.253H180.911ZM183.079 128.253C183.547 128.253 183.919 128.133 184.195 127.893C184.471 127.653 184.609 127.329 184.609 126.921V124.005H186.103V126.885C186.103 127.329 186.223 127.671 186.463 127.911C186.715 128.139 187.075 128.253 187.543 128.253H188.047C188.167 128.253 188.227 128.511 188.227 129.027C188.227 129.543 188.167 129.801 188.047 129.801H187.489C186.385 129.801 185.665 129.447 185.329 128.739C184.909 129.447 184.159 129.801 183.079 129.801H180.919C180.799 129.801 180.739 129.549 180.739 129.045C180.739 128.517 180.799 128.253 180.919 128.253H183.079ZM186.481 120.423V121.845H181.729V120.423H186.481ZM190.216 128.253C190.684 128.253 191.056 128.133 191.332 127.893C191.608 127.653 191.746 127.329 191.746 126.921V124.005H193.24V126.885C193.24 127.329 193.36 127.671 193.6 127.911C193.852 128.139 194.212 128.253 194.68 128.253H195.184C195.304 128.253 195.364 128.511 195.364 129.027C195.364 129.543 195.304 129.801 195.184 129.801H194.626C193.522 129.801 192.802 129.447 192.466 128.739C192.046 129.447 191.296 129.801 190.216 129.801H188.056C187.936 129.801 187.876 129.549 187.876 129.045C187.876 128.517 187.936 128.253 188.056 128.253H190.216ZM191.764 132.069V133.491H187.012V132.069H191.764ZM201.277 122.385C201.997 122.385 202.591 122.505 203.059 122.745C203.527 122.985 203.917 123.381 204.229 123.933C204.541 124.473 204.811 125.223 205.039 126.183L203.617 127.047C203.809 127.503 204.037 127.821 204.301 128.001C204.565 128.169 204.937 128.253 205.417 128.253H206.605C206.725 128.253 206.785 128.517 206.785 129.045C206.785 129.369 206.767 129.579 206.731 129.675C206.695 129.759 206.653 129.801 206.605 129.801H205.363C204.643 129.801 204.073 129.657 203.653 129.369C203.233 129.069 202.849 128.529 202.501 127.749L201.259 128.523C200.491 129.003 199.753 129.339 199.045 129.531C198.337 129.711 197.455 129.801 196.399 129.801H195.193C195.073 129.801 195.013 129.549 195.013 129.045C195.013 128.517 195.073 128.253 195.193 128.253H196.453C197.353 128.253 198.103 128.181 198.703 128.037C199.303 127.893 199.921 127.641 200.557 127.281L203.293 125.679C203.101 125.031 202.837 124.581 202.501 124.329C202.177 124.077 201.685 123.951 201.025 123.951H196.813L197.011 122.385H201.277ZM198.523 133.563V132.069H200.431V133.563H198.523ZM211.425 126.939C211.425 127.827 211.155 128.529 210.615 129.045C210.075 129.549 209.361 129.801 208.473 129.801H206.601C206.481 129.801 206.421 129.549 206.421 129.045C206.421 128.517 206.481 128.253 206.601 128.253H208.473C208.905 128.253 209.253 128.139 209.517 127.911C209.793 127.671 209.931 127.341 209.931 126.921V124.005H211.425V126.939ZM210.417 132.069V133.491H205.665V132.069H210.417ZM221.139 124.707C221.523 125.151 221.799 125.571 221.967 125.967C222.135 126.351 222.219 126.741 222.219 127.137C222.219 127.929 221.943 128.571 221.391 129.063C220.839 129.555 220.065 129.801 219.069 129.801H213.939L213.795 128.253H219.069C219.597 128.253 220.005 128.151 220.293 127.947C220.581 127.743 220.725 127.467 220.725 127.119C220.725 126.903 220.665 126.687 220.545 126.471C220.437 126.243 220.251 125.973 219.987 125.661L216.621 121.791L217.683 120.729L221.139 124.707ZM238.921 128.253C239.389 128.253 239.761 128.139 240.037 127.911C240.313 127.671 240.451 127.347 240.451 126.939V124.005H241.945V126.885C241.945 127.329 242.065 127.671 242.305 127.911C242.557 128.139 242.923 128.253 243.403 128.253H243.889C244.009 128.253 244.069 128.517 244.069 129.045C244.069 129.549 244.009 129.801 243.889 129.801H243.349C242.245 129.801 241.525 129.447 241.189 128.739C240.769 129.447 240.013 129.801 238.921 129.801H232.567C231.511 129.801 230.713 129.525 230.173 128.973C229.645 128.421 229.381 127.659 229.381 126.687V124.005H230.875V126.489C230.875 127.665 231.469 128.253 232.657 128.253H238.921ZM238.021 121.071V122.493H233.269V121.071H238.021ZM248.222 128.253C248.654 128.253 249.002 128.139 249.266 127.911C249.53 127.671 249.662 127.341 249.662 126.921V124.005H251.174V126.939C251.174 127.827 250.904 128.529 250.364 129.045C249.824 129.549 249.11 129.801 248.222 129.801H243.884C243.764 129.801 243.704 129.549 243.704 129.045C243.704 128.517 243.764 128.253 243.884 128.253H248.222ZM248.816 132.069V133.491H244.064V132.069H248.816ZM251.892 132.645C252.912 132.645 253.71 132.345 254.286 131.745C254.862 131.157 255.15 130.335 255.15 129.279V124.005H256.644V126.867C256.644 127.311 256.77 127.653 257.022 127.893C257.286 128.133 257.664 128.253 258.156 128.253H258.39C258.51 128.253 258.57 128.517 258.57 129.045C258.57 129.549 258.51 129.801 258.39 129.801H258.156C257.832 129.801 257.532 129.747 257.256 129.639C256.98 129.519 256.776 129.369 256.644 129.189V129.405C256.632 130.365 256.428 131.205 256.032 131.925C255.636 132.657 255.084 133.215 254.376 133.599C253.668 133.995 252.852 134.193 251.928 134.193H251.424L251.28 132.645H251.892ZM254.808 121.845V120.351H256.716V121.845H254.808ZM262.724 128.253C263.156 128.253 263.504 128.139 263.768 127.911C264.032 127.671 264.164 127.341 264.164 126.921V124.005H265.676V126.939C265.676 127.827 265.406 128.529 264.866 129.045C264.326 129.549 263.612 129.801 262.724 129.801H258.386C258.266 129.801 258.206 129.549 258.206 129.045C258.206 128.517 258.266 128.253 258.386 128.253H262.724ZM263.318 132.069V133.491H258.566V132.069H263.318ZM275.42 129.225C275.42 130.245 275.228 131.127 274.844 131.871C274.46 132.615 273.914 133.185 273.206 133.581C272.51 133.989 271.688 134.193 270.74 134.193H268.526L268.382 132.645H270.758C271.718 132.645 272.48 132.387 273.044 131.871C273.62 131.367 273.914 130.677 273.926 129.801H272.126C270.89 129.801 269.996 129.549 269.444 129.045C268.904 128.529 268.634 127.731 268.634 126.651C268.634 125.907 268.778 125.247 269.066 124.671C269.354 124.083 269.756 123.633 270.272 123.321C270.8 122.997 271.394 122.835 272.054 122.835C273.098 122.835 273.92 123.183 274.52 123.879C275.12 124.575 275.42 125.529 275.42 126.741V129.225ZM270.128 126.561C270.128 127.173 270.278 127.611 270.578 127.875C270.89 128.127 271.436 128.253 272.216 128.253H273.926V126.849C273.926 126.021 273.758 125.397 273.422 124.977C273.086 124.557 272.6 124.347 271.964 124.347C271.412 124.347 270.968 124.551 270.632 124.959C270.296 125.367 270.128 125.901 270.128 126.561ZM292.22 128.253C292.652 128.253 293 128.133 293.264 127.893C293.528 127.653 293.66 127.335 293.66 126.939V124.005H295.154V126.975C295.154 127.851 294.884 128.541 294.344 129.045C293.816 129.549 293.108 129.801 292.22 129.801H285.776C284.72 129.801 283.922 129.525 283.382 128.973C282.854 128.421 282.59 127.659 282.59 126.687V124.005H284.084V126.489C284.084 127.665 284.678 128.253 285.866 128.253H292.22ZM291.23 121.071V122.493H286.478V121.071H291.23ZM300.625 129.279C300.625 130.275 300.427 131.145 300.031 131.889C299.635 132.633 299.077 133.203 298.357 133.599C297.649 133.995 296.833 134.193 295.909 134.193H294.649L294.505 132.645H295.873C296.893 132.645 297.691 132.345 298.267 131.745C298.843 131.157 299.131 130.335 299.131 129.279V124.005H300.625V129.279ZM306.946 128.253C307.006 128.253 307.048 128.307 307.072 128.415C307.108 128.511 307.126 128.721 307.126 129.045C307.126 129.357 307.108 129.561 307.072 129.657C307.048 129.753 307.006 129.801 306.946 129.801H306.478C305.566 129.801 304.87 129.531 304.39 128.991C303.922 128.439 303.688 127.659 303.688 126.651V118.155H305.182V126.579C305.182 127.695 305.638 128.253 306.55 128.253H306.946ZM311.94 128.253C312.456 128.253 312.858 128.151 313.146 127.947C313.446 127.743 313.596 127.467 313.596 127.119C313.596 126.879 313.536 126.645 313.416 126.417C313.308 126.177 313.122 125.925 312.858 125.661L308.628 121.467V120.171L315.198 117.561L315.648 119.001L310.392 121.071L313.992 124.689C314.724 125.421 315.09 126.237 315.09 127.137C315.09 127.929 314.814 128.571 314.262 129.063C313.71 129.555 312.936 129.801 311.94 129.801H306.954C306.834 129.801 306.774 129.549 306.774 129.045C306.774 128.517 306.834 128.253 306.954 128.253H311.94Z" fill="#E9E9E9"/>
<circle cx="160" cy="226" r="6" fill="#006ACC" fill-opacity="0.51"/>
<circle cx="234" cy="248" r="6" fill="#006ACC" fill-opacity="0.51"/>
<circle cx="234" cy="193" r="6" fill="#006ACC" fill-opacity="0.51"/>
<circle cx="305" cy="238" r="6" fill="#006ACC" fill-opacity="0.51"/>
<circle cx="349" cy="291" r="6" fill="#006ACC" fill-opacity="0.51"/>
<circle cx="276" cy="336" r="6" fill="#006ACC" fill-opacity="0.51"/>
<circle cx="203" cy="324" r="6" fill="#006ACC" fill-opacity="0.51"/>
<circle cx="136" cy="291" r="6" fill="#006ACC" fill-opacity="0.51"/>
<circle cx="148" cy="352" r="6" fill="#006ACC" fill-opacity="0.51"/>
<circle cx="246" cy="387" r="6" fill="#006ACC" fill-opacity="0.51"/>
<circle cx="324" cy="387" r="6" fill="#006ACC" fill-opacity="0.51"/>
<circle cx="336" cy="340" r="6" fill="#006ACC" fill-opacity="0.51"/>
<circle cx="166" cy="405" r="6" fill="#006ACC" fill-opacity="0.51"/>
<line x1="159.802" y1="224.541" x2="233.802" y2="192.541" stroke="#2780DD"/>
<line x1="133.802" y1="290.541" x2="233.802" y2="247.541" stroke="#257EDC"/>
<line x1="232.5" y1="190.982" x2="234.5" y2="247.982" stroke="#257EDC"/>
<line x1="236.277" y1="191.584" x2="305.277" y2="237.584" stroke="#257EDC"/>
<line x1="146.096" y1="351.509" x2="324.096" y2="386.509" stroke="#257EDC"/>
<line x1="199.892" y1="323.512" x2="348.892" y2="290.512" stroke="#257EDC"/>
<line x1="335.942" y1="341.497" x2="275.942" y2="334.497" stroke="#257EDC"/>
<line x1="201.54" y1="322.804" x2="233.54" y2="247.804" stroke="#257EDC"/>
<line x1="247.562" y1="386.759" x2="275.562" y2="335.759" stroke="#257EDC"/>
<line x1="162.619" y1="404.676" x2="304.619" y2="237.676" stroke="#257EDC"/>
<line x1="274.653" y1="337.36" x2="159.653" y2="226.36" stroke="#257EDC"/>
<path d="M286.974 95.4294C285.816 95.9721 284.469 96.2435 282.931 96.2435C280.869 96.2435 279.268 95.7008 278.128 94.6154C277.007 93.5119 276.446 91.929 276.446 89.8668C276.446 87.7503 277.034 86.1583 278.21 85.091C279.385 84.0237 280.995 83.4901 283.04 83.4901C283.854 83.4901 284.568 83.5534 285.183 83.68C285.798 83.7886 286.386 83.9876 286.947 84.277V87.1804C286.006 86.7101 284.957 86.4749 283.799 86.4749C282.605 86.4749 281.71 86.7463 281.113 87.289C280.516 87.8317 280.218 88.6909 280.218 89.8668C280.218 91.0426 280.498 91.9019 281.059 92.4446C281.62 92.9873 282.524 93.2586 283.772 93.2586C284.84 93.2586 285.907 92.9782 286.974 92.4175V95.4294Z" fill="white"/>
<path d="M274.879 86.7463H272.22V95.9722H268.53V86.7463H266.983V83.7615H268.53V82.5947C268.53 81.2379 268.882 80.1616 269.588 79.3656C270.311 78.5697 271.343 78.1717 272.681 78.1717C273.785 78.1717 274.698 78.3526 275.422 78.7144V81.3465C274.952 81.1656 274.472 81.0751 273.984 81.0751C273.369 81.0751 272.916 81.2017 272.627 81.455C272.356 81.7083 272.22 82.1062 272.22 82.6489V83.7615H275.069L274.879 86.7463Z" fill="white"/>
<path d="M257.387 86.8277C256.953 87.0267 256.582 87.289 256.275 87.6146V95.9721H252.557V83.7614H256.003L256.139 84.7926C257.333 83.9242 258.78 83.4901 260.481 83.4901C261.855 83.4901 262.85 83.8519 263.465 84.5755C264.099 85.2991 264.415 86.4387 264.415 87.9945V95.9721H260.752V88.4829C260.752 87.7774 260.598 87.2799 260.291 86.9905C260.001 86.683 259.486 86.5292 258.744 86.5292C258.292 86.5292 257.839 86.6287 257.387 86.8277Z" fill="white"/>
<path d="M237.237 92.3632C237.797 92.3632 238.222 92.2728 238.512 92.0919C238.819 91.911 238.973 91.6577 238.973 91.3321C238.973 91.0245 238.901 90.7532 238.756 90.518C238.629 90.2829 238.412 90.0115 238.105 89.704L232.217 83.9514V81.1294L242.501 77.1677L243.478 80.5324L236.477 83.1645L240.71 87.3704C241.343 88.0216 241.804 88.6909 242.094 89.3784C242.401 90.0477 242.555 90.7713 242.555 91.5492C242.555 92.8697 242.094 93.937 241.171 94.7511C240.267 95.5651 238.991 95.9721 237.345 95.9721H230.046C229.865 95.9721 229.774 95.3933 229.774 94.2355C229.774 92.9873 229.865 92.3632 230.046 92.3632H237.237Z" fill="white"/>
<path d="M230.039 92.3632C230.129 92.3632 230.193 92.4808 230.229 92.716C230.283 92.9511 230.31 93.4577 230.31 94.2355C230.31 94.9591 230.283 95.4295 230.229 95.6465C230.193 95.8636 230.129 95.9722 230.039 95.9722H229.062C227.542 95.9722 226.385 95.538 225.589 94.6697C224.811 93.7833 224.422 92.526 224.422 90.8979V78.4973H227.895V90.6537C227.895 91.2326 228.004 91.6668 228.221 91.9562C228.456 92.2275 228.818 92.3632 229.306 92.3632H230.039Z" fill="white"/>
<path d="M220.539 94.9682C220.539 96.4515 220.241 97.754 219.644 98.8756C219.047 100.015 218.188 100.893 217.066 101.508C215.963 102.141 214.678 102.457 213.213 102.457H210.934L210.635 98.8485H213.159C214.407 98.8485 215.375 98.5047 216.062 97.8173C216.75 97.148 217.093 96.1983 217.093 94.9682V86.6377H220.539V94.9682Z" fill="white"/>
<path d="M207.254 92.3632C207.707 92.3632 208.069 92.2366 208.34 91.9833C208.629 91.7301 208.774 91.3954 208.774 90.9793V86.6377H212.22V91.1693C212.22 92.6707 211.777 93.8466 210.891 94.6968C210.004 95.547 208.801 95.9721 207.282 95.9721H198.354C196.726 95.9721 195.478 95.547 194.61 94.6968C193.741 93.8285 193.307 92.5893 193.307 90.9793V86.6377H196.753V90.518C196.753 91.1331 196.889 91.5944 197.16 91.9019C197.45 92.2094 197.902 92.3632 198.517 92.3632H207.254ZM206.603 81.6721V84.7654H198.951V81.6721H206.603Z" fill="white"/>
<defs>
<linearGradient id="paint0_linear_82_375" x1="239.63" y1="53.4551" x2="239.63" y2="527.778" gradientUnits="userSpaceOnUse">
<stop stop-color="#61A3F6"/>
<stop offset="1" stop-color="#3582E4"/>
</linearGradient>
</defs>
</svg>
