<svg width="66" height="66" viewBox="0 0 66 66" fill="none" xmlns="http://www.w3.org/2000/svg">
<path d="M32.8125 65.625C50.9343 65.625 65.625 50.9343 65.625 32.8125C65.625 14.6907 50.9343 0 32.8125 0C14.6907 0 0 14.6907 0 32.8125C0 50.9343 14.6907 65.625 32.8125 65.625Z" fill="url(#paint0_linear_240_177)"/>
<path d="M38.5472 15.5954C39.2564 14.3575 38.8324 12.7764 37.6003 12.0639C36.3682 11.3514 34.7944 11.7774 34.0852 13.0153L32.8484 15.1744L31.6113 13.0153C30.9021 11.7774 29.3283 11.3514 28.0962 12.0639C26.8641 12.7764 26.4401 14.3575 27.1493 15.5954L29.8781 20.3588L21.2466 35.4256H14.2929C12.8712 35.4256 11.7188 36.5834 11.7188 38.0116C11.7188 39.4399 12.8712 40.5977 14.2929 40.5977H38.5134C38.7258 40.0371 38.9494 39.0752 38.7115 38.1912C38.3541 36.8623 37.0312 35.4256 34.8145 35.4256H27.1868L38.5472 15.5954Z" fill="white"/>
<path d="M22.585 43.4576C22.1458 42.9675 21.1618 42.1844 20.2989 41.9269C18.9833 41.5338 17.9859 41.7804 17.4827 41.9951L15.5653 45.3422C14.8561 46.5799 15.28 48.161 16.5122 48.8735C17.7444 49.586 19.318 49.1601 20.0272 47.9222L22.585 43.4576Z" fill="white"/>
<path d="M47.4131 40.5977H51.3323C52.7541 40.5977 53.9065 39.4399 53.9065 38.0116C53.9065 36.5833 52.7541 35.4255 51.3323 35.4255H44.4502L36.6975 21.8932C36.1216 22.443 35.0175 23.8476 34.8506 25.4402C34.6362 27.4875 34.9577 29.2115 35.9231 30.8998C39.1685 36.5756 42.4191 42.2489 45.6691 47.9222C46.3784 49.1601 47.952 49.586 49.1843 48.8735C50.4164 48.161 50.8404 46.5799 50.1312 45.3422L47.4131 40.5977Z" fill="white"/>
<defs>
<linearGradient id="paint0_linear_240_177" x1="32.8125" y1="0" x2="32.8125" y2="65.625" gradientUnits="userSpaceOnUse">
<stop stop-color="#2AC9FA"/>
<stop offset="1" stop-color="#1F65EB"/>
</linearGradient>
</defs>
</svg>
