<svg width="76" height="76" viewBox="0 0 76 76" fill="none" xmlns="http://www.w3.org/2000/svg">
<g clip-path="url(#clip0_207_14)">
<path d="M75.8761 40.6758C75.8207 42.0263 75.6785 43.4118 75.3555 44.7349C75.2385 45.9874 74.8722 47.208 74.5378 48.4225C74.1471 49.9045 73.5893 51.3355 73.0254 52.7674C72.5109 53.9575 71.9348 55.1165 71.3336 56.2695C70.7507 57.2924 70.1435 58.2956 69.4868 59.2684C68.7613 60.3324 67.9886 61.3571 67.1688 62.3426C66.3191 63.3405 65.4452 64.3255 64.4974 65.2245C63.2731 66.4135 61.9706 67.5192 60.5986 68.5343C59.4238 69.4114 58.1941 70.2125 56.9172 70.9329C55.4854 71.7887 53.973 72.4924 52.4408 73.146C50.8084 73.8051 49.1358 74.36 47.4332 74.8074C45.9519 75.1357 44.4692 75.5073 42.9583 75.6251C40.1463 76.0591 37.2689 76.0652 34.4364 75.7923C31.8828 75.594 29.3543 75.0491 26.8934 74.324L26.8873 74.2799C15.0633 70.8341 5.34514 61.0977 1.74426 49.3276C0.956901 46.793 0.405141 44.1649 0.200701 41.5125C-0.0903784 38.9399 0.0487015 36.3445 0.0335015 33.7605C0.0147548 31.6964 0.0127282 29.6282 0.0274215 27.5559C0.0142482 25.4365 0.0142482 23.3128 0.0274215 21.1848C0.0145015 19.3608 0.0213415 17.5406 0.0213415 15.7181C0.0213415 13.8957 0.00842152 12.0557 0.0335015 10.2271C0.00842152 8.41681 0.0274215 6.60725 0.0213415 4.79769C-0.103298 3.43425 0.343581 2.00849 1.3787 1.08509C2.4693 0.0978514 4.0805 -0.273789 5.47282 0.209571C6.31566 0.494571 7.04678 1.01517 7.7969 1.48029C10.5329 3.25869 13.1579 5.19289 15.7549 7.16357C16.0376 7.01204 16.3089 6.84008 16.5665 6.64905C17.6059 5.91895 18.6872 5.25052 19.8049 4.64721C20.9337 4.0268 22.0943 3.46616 23.2819 2.96761C24.5275 2.44701 25.8043 1.99481 27.0933 1.59201C28.4689 1.21201 29.8513 0.823651 31.2733 0.625291C32.8223 0.317332 34.3934 0.132832 35.9716 0.0735314C37.9075 -0.0473733 39.8502 -0.0038975 41.7788 0.203491C43.2446 0.33353 44.6996 0.56641 46.1328 0.900411C55.9011 2.95241 64.6829 9.13121 70.0317 17.5444C72.4183 21.2622 74.1285 25.3727 75.0835 29.6862C75.4429 31.2784 75.7279 32.9025 75.8207 34.5327C76.0405 36.5736 76.0591 38.6312 75.8761 40.6758Z" fill="url(#paint0_linear_207_14)"/>
<path d="M52.7205 19.8406C54.2756 19.4046 55.925 19.439 57.4606 19.9393C59.4078 20.6857 60.9787 22.2148 61.8306 24.1117C62.4645 25.8491 62.5382 27.7917 61.8998 29.5412C61.4392 30.7724 60.626 31.828 59.6654 32.7134C58.8193 33.5489 57.9779 34.3885 57.1414 35.2321C56.2454 36.1281 55.3448 37.0181 54.4564 37.9187C53.5976 38.7759 52.7372 39.6279 51.8838 40.4882C50.9474 41.4261 50.0081 42.3586 49.0756 43.3002C48.0116 44.3642 46.943 45.4236 45.8835 46.4922C44.8773 47.5022 43.8657 48.5054 42.8587 49.5155C41.8517 50.5255 40.8242 51.5454 39.8111 52.5638C38.8786 53.4644 38.0244 54.4593 36.9725 55.2284C35.6514 56.0475 34.1226 56.4696 32.5683 56.4444C30.7801 56.3266 29.0161 55.6213 27.7302 54.3544C23.7513 50.3801 19.774 46.4043 15.7982 42.427C14.8239 41.4648 14.1733 40.2177 13.8222 38.9021C13.4612 37.0887 13.6747 35.1393 14.6057 33.5251C15.3179 32.2681 16.4138 31.2717 17.6602 30.5611C19.0291 29.9117 20.5515 29.6557 22.0575 29.8216C23.6824 30.0656 25.2495 30.8096 26.3827 32.0074C28.5391 34.1713 30.6982 36.33 32.8602 38.4833C33.5161 37.8617 34.1446 37.2119 34.7746 36.5628C35.6866 35.6858 36.5794 34.7902 37.4529 33.8762C38.3162 33.0645 39.1499 32.2179 39.9662 31.3591C40.5544 30.8362 41.0872 30.2563 41.6435 29.7023C42.5555 28.8146 43.4485 27.9095 44.3407 27.0035C45.1927 26.1805 46.0211 25.3353 46.8541 24.4955C47.7501 23.6215 48.6234 22.7263 49.5141 21.8454C50.4087 20.9317 51.5085 20.2446 52.722 19.8413L52.7205 19.8406Z" fill="white"/>
</g>
<defs>
<linearGradient id="paint0_linear_207_14" x1="59.9192" y1="6.17405" x2="6.2001" y2="59.8939" gradientUnits="userSpaceOnUse">
<stop stop-color="#4CEBB4"/>
<stop offset="1" stop-color="#2E2E74"/>
</linearGradient>
<clipPath id="clip0_207_14">
<rect width="76" height="75.9787" fill="white"/>
</clipPath>
</defs>
</svg>
