<svg width="39" height="39" viewBox="0 0 39 39" fill="none" xmlns="http://www.w3.org/2000/svg">
<path d="M28.2072 24.1413C28.2434 24.5035 28.6634 24.5208 28.9345 24.5208C29.3664 24.5208 30.0063 24.0317 30.3574 23.7935C30.9144 23.4155 31.3502 22.9013 31.8893 22.497C32.471 22.0607 32.8999 21.1783 33.1401 20.5084C33.6716 19.0257 34.4682 17.5493 34.4682 15.9374C34.4682 14.5664 34.0858 13.2677 33.7092 11.9707C33.3834 10.8485 33.2006 9.83695 32.6095 8.83674C32.4582 8.58059 32.3857 8.4236 32.1598 8.23243C31.9917 8.09017 31.9527 7.8144 31.7487 7.71244C31.2573 7.46671 30.7159 7.84054 30.2942 8.06378C29.831 8.30897 29.5711 8.64325 29.725 9.15295C30.0752 10.313 30.2978 11.5812 30.4347 12.7859C30.5571 13.8627 30.5018 14.8091 30.4207 15.8847C30.3792 16.4336 30.2786 16.9883 30.2169 17.536C30.1685 17.9657 30.0697 18.3581 29.9463 18.7692C29.8203 19.1895 29.6815 19.5714 29.6618 20.0165C29.6525 20.2247 29.5106 20.3716 29.4755 20.5646C29.4189 20.876 29.7417 20.0644 29.7672 20.0165C30.177 19.2463 30.7284 18.5142 31.0742 17.7152C31.3196 17.1482 31.3508 16.4622 31.6539 15.9234C31.8437 15.586 31.7189 15.8323 31.6574 16.0885C31.3568 17.3408 30.8543 18.5355 30.4839 19.7636C30.3928 20.0656 30.1965 20.2645 30.0553 20.5365C29.8918 20.8513 29.7381 21.1772 29.5669 21.4816C29.3255 21.9108 29.1957 21.6364 28.931 21.4851C28.5034 21.2408 28.1484 20.6408 27.891 20.2344C27.68 19.9013 27.4522 19.5011 27.2937 19.1417C27.1479 18.8113 26.9477 18.5475 26.8159 18.2106C26.6125 17.6909 26.4802 17.1455 26.078 16.7279C25.85 16.4911 25.6951 16.1884 25.4913 15.9234C25.2815 15.6506 25.0495 15.3551 24.8062 15.1118C24.3392 14.6448 23.9506 14.1605 23.5273 13.6431C23.2951 13.3594 22.9882 13.1439 22.8176 12.821C22.6933 12.5858 22.3458 12.2888 22.4908 11.9988C22.6553 11.6699 22.9731 11.5637 23.3024 11.4437C24.1385 11.139 24.9687 10.8935 25.8462 10.734C26.9983 10.5245 28.0329 9.76994 28.8361 8.96674C29.0688 8.73399 28.8519 9.02232 28.808 9.12485C28.6682 9.45108 28.5705 9.78258 28.411 10.1016C27.9111 11.1013 27.748 12.1813 27.371 13.2285C27.262 13.5313 27.058 13.9262 27.0091 14.2439C26.9552 14.5944 27.2025 14.7688 27.4623 14.9712C27.9987 15.389 28.5586 16.0253 28.7764 16.6788" stroke="white" stroke-width="4" stroke-linecap="round"/>
<path d="M22.1997 11.3032C21.803 11.0534 21.3498 10.8905 20.9349 10.6708C20.8037 10.6013 20.7052 10.381 20.5554 10.3546C20.4842 10.342 20.3564 10.2158 20.3025 10.1649C20.1059 9.97925 19.8702 9.88515 19.6209 9.78543C19.1245 9.58688 18.8158 9.05085 18.342 8.78761C18.0779 8.64088 17.7878 8.41635 17.5515 8.23249C17.2296 7.98212 16.7616 7.83826 16.4693 7.56844C16.2738 7.388 15.9956 7.31244 15.7842 7.15737C15.5662 6.99748 15.4241 6.79034 15.1834 6.65495C14.9734 6.53684 14.7403 6.44537 14.5194 6.34225C14.3447 6.26077 14.155 6.11189 13.9818 6.05415C13.8291 6.00327 13.6106 5.92169 13.4723 5.8328C13.2139 5.66664 12.8623 5.70304 12.601 5.54821C12.344 5.3959 12.1231 5.35849 11.8281 5.35849C11.2374 5.35849 11.7829 5.25908 12.0178 5.15471C12.2494 5.05178 12.4454 4.92568 12.6994 4.86661C12.9206 4.81516 13.2694 4.74819 13.4442 4.59958C13.8185 4.28147 14.6111 4.04358 15.085 3.97068C16.3838 3.77086 17.6242 3.37147 18.9463 3.33474C19.5127 3.31901 20.1714 3.16151 20.7452 3.28556C21.1372 3.37033 21.5406 3.34157 21.9257 3.42609C22.5776 3.5692 23.2111 3.91054 23.844 4.12527C24.8167 4.4553 25.7339 4.78979 26.7707 4.84904C27.1453 4.87044 27.4793 4.89713 27.8318 5.04228C28.1336 5.16656 28.4855 5.17382 28.7453 5.39362C29.1093 5.70166 29.3915 5.6747 29.8485 5.6747C30.0033 5.6747 30.2947 5.60465 30.2947 5.8328C30.2947 6.08203 30.276 6.11986 30.0417 6.24388C29.6586 6.44674 29.2263 6.40091 28.8261 6.57414C27.9293 6.96232 27.0158 7.44174 26.2332 8.02871C25.8465 8.31873 25.4261 8.64734 24.9543 8.78761C24.6754 8.87052 24.4351 9.06662 24.1602 9.13895C23.844 9.22218 23.41 9.28422 23.0992 9.15301C22.8161 9.03346 22.7167 8.65113 22.5019 8.44329C21.993 7.95081 21.2747 7.72975 20.6609 7.39629C20.1522 7.11996 19.6279 6.95072 19.1044 6.7217C18.9681 6.66209 18.7134 6.49684 18.5739 6.49684C18.4638 6.49684 18.7945 6.49367 18.9041 6.50387C19.3514 6.54548 19.7632 6.72346 20.1936 6.83765C21.2397 7.1152 22.3484 7.37901 23.433 7.44899C23.6313 7.46178 23.9302 7.45654 24.1251 7.51223C24.1834 7.52888 24.1713 7.62817 24.1075 7.62817C23.7547 7.62817 23.3788 7.53465 23.0254 7.5052C22.0617 7.42489 21.1048 7.09474 20.1549 6.91143C19.5284 6.79052 18.9122 6.65166 18.2928 6.5109C17.9878 6.44159 17.6055 6.38031 17.3301 6.25793C17.2788 6.23513 16.9313 6.24388 17.1404 6.24388C17.4938 6.24388 17.8562 6.39195 18.1874 6.49684C19.078 6.77895 19.9743 7.17024 20.7873 7.63169C21.5958 8.09054 22.3424 8.5737 23.057 9.16003C23.7181 9.70248 24.4696 10.158 25.0737 10.7622C25.8141 11.5025 26.5861 12.2113 27.3223 12.9475" stroke="white" stroke-width="4" stroke-linecap="round"/>
<path d="M16.1714 21.2058C16.0019 21.2058 16.0728 21.34 15.953 21.3514C15.5207 21.3926 15.1093 21.5535 14.6746 21.5699C14.3302 21.5829 13.9508 21.6477 13.6066 21.6994C13.0312 21.7857 12.4667 21.9912 11.8752 22.0068C11.3119 22.0216 10.754 22.014 10.1964 22.0837C9.11786 22.2185 7.95503 22.1087 6.99643 22.6945C6.61138 22.9298 6.15166 23.09 5.72617 23.2447C5.39073 23.3667 5.12284 23.572 4.79573 23.6978C4.54653 23.7936 4.23878 23.9089 4.01092 24.0295C3.90635 24.0849 4.24864 24.4159 4.31837 24.5554C4.50322 24.9251 4.66405 25.2488 4.81191 25.6315C4.95935 26.0131 5.10878 26.4411 5.30545 26.7966C5.44079 27.0412 5.65034 27.3237 5.68167 27.6057C5.81567 28.8116 6.52893 30.4285 7.65179 31.0523C7.93389 31.2091 8.2091 31.545 8.45278 31.7643C8.7367 32.0199 9.05898 32.0178 9.23759 32.4197C9.39246 32.7682 9.45071 32.9419 9.6745 32.4197C9.80846 32.1071 9.75023 31.7307 9.84036 31.4003C10.0223 30.7331 10.5106 30.1626 10.7061 29.511C10.8684 28.9701 11.0379 28.3498 11.3291 27.8646C11.5902 27.4293 11.7961 26.9097 11.9804 26.4406C12.162 25.9782 12.4392 25.5768 12.6317 25.1177C12.7754 24.7751 12.948 24.3348 13.2021 24.0619C13.5094 23.7318 13.6885 23.2266 14.0435 22.9534C14.0815 22.9243 14.3504 22.6129 14.4076 22.6783C14.5457 22.8361 12.7975 23.7359 12.7409 23.7625C11.9114 24.1526 11.0426 24.4522 10.2085 24.8305C9.71025 25.0565 9.20968 25.2853 8.67933 25.4292C8.25856 25.5434 7.84586 25.6546 7.41716 25.7367C7.26711 25.7654 6.78392 25.7226 6.6728 25.8338C6.45282 26.0537 8.36823 26.7963 8.5256 27.0717C8.64601 27.2824 8.59842 27.5585 8.59842 27.7958C8.59842 27.9548 8.82348 28.6928 8.88969 28.5604" stroke="#9EC7FF" stroke-width="4" stroke-linecap="round"/>
<path d="M19.3742 36.9752C19.2102 36.8294 19.0052 36.8534 18.914 36.607C18.7789 36.2424 18.3369 36.0599 18.1052 35.7621C17.8714 35.4614 17.718 35.0255 17.5069 34.6937C17.3107 34.3854 17.076 34.0979 16.8757 33.7666C16.5638 33.2508 16.2128 32.758 15.8828 32.2543C15.7308 32.0222 15.6675 31.8266 15.5869 31.5606C15.4996 31.2724 15.3489 31.0019 15.2648 30.7256C15.1331 30.2931 15.3323 29.7248 15.1431 29.3086C14.9961 28.9851 14.9952 28.6683 14.9952 28.3224C14.9952 27.8351 14.8804 28.435 14.8176 28.5722C14.5181 29.2274 14.41 30.0304 13.9563 30.6138C13.8278 30.7791 13.8348 30.986 13.7854 31.1891C13.6808 31.6185 13.4628 32.0115 13.3678 32.4482C13.2612 32.9386 13.0696 33.4667 13.0424 33.9572C13.0226 34.3128 12.9047 34.674 12.924 35.0224C12.9399 35.3084 13.6185 35.4464 13.8117 35.5254C14.165 35.67 14.5903 35.8234 14.9656 35.9068C15.1859 35.9557 15.4176 36.0284 15.6461 36.0284" stroke="#5D9DFF" stroke-width="4" stroke-linecap="round"/>
<path d="M23.1622 18.8755C23.2385 18.9613 23.2387 19.0668 23.2916 19.1667C23.322 19.2241 23.486 19.3124 23.4211 19.3124C23.3196 19.3124 23.0704 18.8284 23.0165 18.746C22.9206 18.5993 22.8603 18.4419 22.7819 18.2929C22.6149 17.9757 22.2176 17.7312 21.9971 17.4555C21.9189 17.3578 21.9077 17.8161 21.9283 17.8884C21.9699 18.0338 22.2693 18.2248 22.4016 18.297C22.6074 18.4092 22.8276 18.6319 22.9437 18.835C22.9777 18.8944 23.1159 18.9865 22.972 18.8714C22.6088 18.5809 22.2747 18.2246 21.9243 17.9126C21.4726 17.5107 20.7478 17.0896 20.4679 16.5453C20.3787 16.3719 19.9776 16.1181 19.9582 15.9628C19.9433 15.8436 19.6833 15.6262 19.5941 15.5259C19.5118 15.4333 19.4631 15.3272 19.3756 15.2346C19.2886 15.1424 19.2023 15.1259 19.1248 15.0485C18.8062 14.7298 18.6028 14.3582 18.2146 14.1059C17.4812 13.6292 16.7472 12.9515 16.1798 12.2895C15.9166 11.9825 15.5088 11.8774 15.221 11.5897C14.7648 11.1335 14.3064 10.4281 13.7363 10.1212C13.452 9.9681 13.2306 9.72873 12.9515 9.571C12.7103 9.43466 12.4188 9.386 12.1667 9.26355C11.8617 9.11539 11.5154 8.87741 11.2039 8.77001C10.545 8.54281 9.76661 8.55315 9.14479 8.2077C8.96927 8.11018 8.05837 7.34403 8.01208 7.55234C7.84786 8.29132 7.3218 8.96239 6.92386 9.571C6.75485 9.82949 6.52879 10.1703 6.28469 10.3558C6.17559 10.4387 6.14794 10.5896 6.05005 10.6875C5.93316 10.8044 5.78756 10.8506 5.68597 10.995C5.47443 11.2956 5.18283 11.5647 5.03061 11.9012C4.84444 12.3127 4.47149 12.5648 4.37525 13.046C4.30065 13.419 4.02741 13.7691 3.91003 14.1342C3.75832 14.6062 3.6405 15.1109 3.42862 15.5582C3.19726 16.0466 3.09448 16.6207 2.97554 17.144C2.9076 17.4429 2.75119 17.7426 2.70449 18.0461C2.64169 18.4544 2.69858 18.8675 2.62359 19.28C2.57405 19.5524 2.55481 19.7987 2.55481 20.0769C2.55481 20.294 2.55481 20.5112 2.55481 20.7283C2.55481 20.7799 2.53042 21.0717 2.59527 20.9791C2.72314 20.7964 2.85725 20.7173 3.04836 20.6069C3.53802 20.324 4.26359 20.2107 4.82834 20.1862C5.37599 20.1624 6.02636 19.9536 6.55977 19.8221C7.05532 19.6999 7.51569 19.4412 7.99994 19.3285C8.26083 19.2679 8.5328 19.17 8.78475 19.0777C9.21164 18.9214 9.67069 18.8338 10.0874 18.657C10.9773 18.2794 12.0201 18.2887 12.9637 18.1149C13.5808 18.0012 14.2341 18.0016 14.861 18.0016C15.9364 18.0016 17.0733 18.1027 18.1378 17.945C18.2424 17.9295 19.2472 18.0147 19.2866 17.8965C19.352 17.7003 18.293 17.0719 18.1782 16.9579C17.5798 16.3638 17.1158 15.6447 16.4791 15.0889C15.8584 14.547 15.1871 14.3309 14.4645 13.9643C13.6104 13.5311 12.9562 12.9619 12.3447 12.245C12.0535 11.9035 11.6623 11.516 11.4385 11.1244C11.3771 11.017 10.7967 11.084 10.7023 11.084C10.2017 11.084 9.60857 10.9718 9.24998 11.3753C8.71974 11.9718 8.34028 12.7376 7.70058 13.22C6.92568 13.8043 6.15843 14.8151 5.71833 15.6715C5.50384 16.0889 4.74076 17.2586 5.06297 16.9175C5.52593 16.4273 6.13698 16.2247 6.8025 16.0841C7.67083 15.9007 8.56075 15.6982 9.44011 15.5825C9.88733 15.5236 10.2941 15.2882 10.7266 15.1618C11.0871 15.0564 11.4403 14.9965 11.7986 14.9069C11.9607 14.8664 12.1494 14.8414 12.3083 14.9109C12.4328 14.9654 12.5092 15.1286 12.64 15.1577C12.9395 15.2243 12.861 14.6059 12.7816 14.5833C12.5749 14.5242 12.3974 14.7445 12.2759 14.8705C11.6461 15.5237 10.8568 16.0993 10.1157 16.6181C9.30861 17.1831 8.46649 17.7569 7.59136 18.212C7.09237 18.4715 6.56768 18.6922 6.0986 19.0049C5.73787 19.2454 5.22918 19.2665 4.94161 19.6036C4.63039 19.9685 4.07693 20.3699 3.68753 20.6554C3.31589 20.928 2.88037 21.2056 2.40918 21.2056" stroke="#D2E3FF" stroke-width="4" stroke-linecap="round"/>
<path d="M30.3836 33.2847C30.0467 33.2847 29.8936 33.3262 29.5989 33.4334C29.2762 33.5507 28.9492 33.7726 28.6324 33.9166C28.3004 34.0675 27.924 34.0569 27.5751 34.1602C27.2014 34.271 26.7401 34.3854 26.3526 34.3998C25.9229 34.4157 25.4537 34.5583 25.031 34.6187C24.4731 34.6984 23.8514 34.6228 23.2881 34.6228C22.5153 34.6228 21.948 34.2895 21.2768 33.9166C21.0334 33.7813 20.7543 33.7045 20.554 33.5242C20.4359 33.4179 19.6708 33.1283 19.9015 33.359C20.0654 33.523 20.2137 33.8134 20.3641 34.0116C20.6287 34.3604 20.9029 34.666 21.1983 34.9615C21.4193 35.1825 21.8189 35.6043 22.1276 35.7008C22.4779 35.8102 22.7417 36.02 23.0238 35.7379C23.1035 35.6582 23.4473 35.5523 23.0981 35.4571C22.5643 35.3115 22.2011 34.8594 21.7765 34.5072C21.4211 34.2122 21.08 33.9202 20.8679 33.5077C20.6928 33.1672 20.4437 32.8386 20.0502 32.8386" stroke="#5D9DFF" stroke-width="4" stroke-linecap="round"/>
<path d="M21.5719 21.0015C21.9131 21.0015 22.1991 21.0291 22.5225 21.0925C24.2174 21.4272 25.6067 22.659 26.1722 24.271C26.3364 24.7894 26.5525 25.5661 26.6906 26.0991L26.871 26.8027L27.5957 26.7881C33.3677 26.6663 38.0867 21.97 38.0867 16.1509C38.0884 7.33362 30.7352 0 19.5 0C14.8655 0.014625 10.4715 1.69975 7.14512 4.41187C2.78525 7.98687 0 13.4193 0 19.5016C0.00325 21.0616 0.19175 22.6314 0.54275 24.0809C1.82325 29.3914 5.2715 33.8553 9.90112 36.4764C12.701 38.0542 16.0501 38.9902 19.5032 39C20.3499 39 21.2127 38.9415 22.0285 38.8391C27.1082 38.181 31.5721 35.5696 34.6466 31.7882L34.8481 31.5413L34.4581 30.1307L33.7057 30.329C31.3722 30.9481 28.9802 31.2682 26.4534 31.265C24.4335 31.265 22.5079 31.057 20.6066 30.6556C18.8939 30.3111 17.5012 29.0648 16.9536 27.4381C16.7765 26.9263 16.6969 26.4501 16.7001 25.8814C16.6822 24.6106 17.1177 23.5657 17.9042 22.672C18.7964 21.6466 20.1094 21.0015 21.5719 21.0015ZM19.5 1.82812C29.8967 1.82812 36.2586 8.50688 36.2586 16.1493C36.2586 20.7171 32.7356 24.4676 28.2652 24.9194C28.1466 24.4952 28.0182 24.0484 27.9094 23.7071C25.0802 14.8395 18.3397 7.97388 9.66712 4.80513C12.4865 2.8925 15.8096 1.81675 19.5 1.82812ZM1.8265 19.5016C1.8265 14.1667 4.19087 9.38275 7.93 6.13925C15.0426 8.41913 20.8715 13.2844 24.2742 19.7421C23.8322 19.5471 23.3659 19.3976 22.8784 19.3001C20.8975 18.889 18.798 18.6599 16.692 18.6599C11.427 18.6696 6.38137 20.0557 2.06537 22.438C1.90612 21.4858 1.8265 20.5156 1.8265 19.5016ZM20.228 32.4464C22.217 32.864 24.3327 33.0931 26.4501 33.0931C28.0686 33.0931 29.6774 32.9583 31.2406 32.7129C28.7722 34.9099 25.6864 36.4211 22.2722 36.9606C20.9739 35.4364 19.8461 33.7919 18.9052 32.0336C19.3261 32.2107 19.7681 32.3505 20.228 32.4464ZM20.0915 37.1654C19.8965 37.1719 19.6982 37.1751 19.5 37.1751C16.5344 37.1849 13.8352 36.4861 11.3847 35.2105C12.0884 32.1116 13.2892 29.2386 14.9126 26.6354C14.9679 27.1131 15.0735 27.5893 15.2149 28.0134C16.3036 31.33 17.9823 34.4533 20.0915 37.1654ZM16.5295 21.4614C13.3542 25.0201 10.9557 29.445 9.7435 34.2404C6.26112 31.9312 3.6465 28.4196 2.48462 24.3003C6.68687 21.8498 11.4741 20.4799 16.6936 20.488C16.9861 20.488 17.2754 20.4912 17.5646 20.501C17.1876 20.7837 16.8399 21.1039 16.5295 21.4614Z" fill="#003EAD"/>
</svg>
