<svg width="70" height="51" viewBox="0 0 70 51" fill="none" xmlns="http://www.w3.org/2000/svg">
<path d="M62.8543 0.161621H20.6042C16.6641 0.161621 13.4584 3.84813 13.4584 8.37923V13.011H6.30039C5.02759 13.011 3.99571 14.1974 3.99571 15.6614C3.99571 17.1255 5.02759 18.3118 6.30039 18.3118H13.4584V20.124H2.30468C1.03188 20.124 0 21.3103 0 22.7744C0 24.2384 1.03188 25.4247 2.30468 25.4247H13.4584V27.7126H6.30039C5.02759 27.7126 3.99571 28.8989 3.99571 30.3629C3.99571 31.827 5.02759 33.0133 6.30039 33.0133H13.4584V35.3326C13.4584 39.4771 16.1408 42.9127 19.6132 43.4693C20.1021 47.3484 23.0115 50.3384 26.518 50.3384C30.0002 50.3384 32.8943 47.3901 33.413 43.5502H50.0451C50.5639 47.3901 53.4582 50.3384 56.9402 50.3384C60.4467 50.3384 63.3561 47.3484 63.845 43.4693C67.3177 42.9127 69.9997 39.4767 69.9997 35.3326V8.37923C70 3.84813 66.7944 0.161621 62.8543 0.161621ZM61.7379 5.46239L41.7292 23.2373L21.7206 5.46239H61.7379ZM26.518 45.0376C25.212 45.0376 24.1494 43.8156 24.1494 42.3134C24.1494 40.8111 25.212 39.5891 26.518 39.5891C27.8243 39.5891 28.8869 40.8111 28.8869 42.3134C28.8869 43.8156 27.8243 45.0376 26.518 45.0376ZM56.9402 45.0376C55.6342 45.0376 54.5716 43.8156 54.5716 42.3134C54.5716 40.8111 55.6342 39.5891 56.9402 39.5891C58.2464 39.5891 59.3091 40.8111 59.3091 42.3134C59.3091 43.8156 58.2464 45.0376 56.9402 45.0376ZM62.9511 38.2434C61.7357 35.8786 59.4971 34.288 56.9402 34.288C54.3813 34.288 52.1412 35.881 50.9265 38.2491H32.5314C31.3167 35.881 29.0765 34.288 26.5177 34.288C23.961 34.288 21.7224 35.8786 20.5071 38.2434C19.1535 38.1844 18.0675 36.903 18.0675 35.3322V25.4247H21.8444C23.1172 25.4247 24.1491 24.2384 24.1491 22.7744C24.1491 21.3103 23.1172 20.124 21.8444 20.124H18.0678V8.91567L40.3203 28.684C40.7351 29.0526 41.2323 29.2367 41.7292 29.2367C42.2261 29.2367 42.7233 29.0526 43.1382 28.684L65.3907 8.91567V35.3322C65.3907 36.903 64.3047 38.1844 62.9511 38.2434Z" fill="white"/>
</svg>
